# xmcd
#
# Track frame offsets:
#	150
#	22895
#	39667
#	53185
#	66697
#	80175
#	97510
#	111372
#	124037
#	144150
#	156147
#	169872
#	190742
#	204070
#
# Disc length: 3008 seconds
#
# Revision: 3
# Processed by: cddbd v1.5.2PL0 Copyright (c) Steve Scherf et al.
# Submitted via: audiograbber 1.83.01
#
DISCID=b60bbe0e
DTITLE=Vários - Bailão de Peão
DYEAR=1900
DGENRE=Pop
TTITLE0=Chitãozinho and Xororó - Na aba do meu chapeu
TTITLE1=Rio Negro and Solimões - A gente se entrega
TTITLE2=André and Adriano - Água de Coco
TTITLE3=Almir Rogério - Fuscão Preto
TTITLE4=Maurício and Maurí - Esquecido
TTITLE5=Roberta Miranda - A Majestade, o Sabiá
TTITLE6=Gilberto and Gilmar - Nois não vive sem muié
TTITLE7=Jad and Jefferson - Amor Perigoso
TTITLE8=Chitãozinho and Xororó - Deixei de ser cowboy por ela
TTITLE9=Antonio Carlos and Renato - É pra Quebrar a cama
TTITLE10=Rio Negro and Solimões - De São Paulo a Belém
TTITLE11=Andre and Adriano - Paixão de Peão
TTITLE12=Adalberto and Adriano - Pedruca de Touro
TTITLE13=Nalva Aguiar - Oração de Peão de Boiadeiro
EXTD=
EXTT0=
EXTT1=
EXTT2=
EXTT3=
EXTT4=
EXTT5=
EXTT6=
EXTT7=
EXTT8=
EXTT9=
EXTT10=
EXTT11=
EXTT12=
EXTT13=
PLAYORDER=
